<!-- Reference master: 64 px inspection size with the production 16 px design grid preserved. -->
<!-- Fluent System Icons: HideUnselectedNames retains a simple, recognizable silhouette. 16 px optical slot from eye_tracking_off_16_regular.svg; solid color and open counters preserve clarity. -->
<!-- Copyright (c) Microsoft Corporation. MIT License; see LICENSE-fluent.txt. -->
<svg width="64" height="64" viewBox="0 0 16 16" fill="#424242" xmlns="http://www.w3.org/2000/svg">
<path d="m13.02 13.72 1.13 1.13a.5.5 0 0 0 .7-.7l-13-13a.5.5 0 1 0-.7.7l1.13 1.13A2 2 0 0 0 2 4v1.5a.5.5 0 0 0 1 0V4l.03-.26L4.7 5.41A5 5 0 0 0 3.04 7.3v.01a.5.5 0 0 0 .92.38v-.01L4 7.62q.03-.09.13-.24a4 4 0 0 1 1.3-1.24l.95.95a2.5 2.5 0 1 0 3.53 3.53l2.35 2.35L12 13h-1.5a.5.5 0 1 0 0 1H12a2 2 0 0 0 1.02-.28M9.2 9.9a1.5 1.5 0 1 1-2.1-2.1zM6.73 4.61l.9.9L8 5.5a4.6 4.6 0 0 1 3.23 1.12 4 4 0 0 1 .8 1.06s.25.45.66.28a.5.5 0 0 0 .27-.65c-.1-.22 0 0 0 0V7.3l-.06-.13q-.06-.13-.19-.33a5 5 0 0 0-.81-.96A5.6 5.6 0 0 0 8 4.5q-.69 0-1.27.11M13 10.88l1 1V10.5a.5.5 0 1 0-1 0zM4.12 2l1 1h.38a.5.5 0 0 0 0-1zM4 14a2 2 0 0 1-2-2v-1.5a.5.5 0 1 1 1 0V12a1 1 0 0 0 1 1h1.5a.5.5 0 1 1 0 1zM14 4a2 2 0 0 0-2-2h-1.5a.5.5 0 0 0 0 1H12a1 1 0 0 1 1 1v1.5a.5.5 0 0 0 1 0z"/>
</svg>
