<svg width="16" height="16" viewBox="0 0 16 16" fill="none" xmlns="http://www.w3.org/2000/svg">
<path d="M1 3.5C1 2.94772 1.44772 2.5 2 2.5H4.5L5.5 4.5H8C8.55228 4.5 9 4.94772 9 5.5V11.5C9 12.0523 8.55228 12.5 8 12.5H2C1.44772 12.5 1 12.0523 1 11.5V3.5Z" fill="#FCD164" stroke="#D9A926" stroke-width="1" stroke-linejoin="round"/>
<path d="M7 6.5C7 5.94772 7.44772 5.5 8 5.5H10.5L11.5 7.5H14C14.5523 7.5 15 7.94772 15 8.5V14.5C15 15.0523 14.5523 15.5 14 15.5H8C7.44772 15.5 7 15.0523 7 14.5V6.5Z" fill="#FCD164" stroke="#D9A926" stroke-width="1" stroke-linejoin="round"/>
</svg>