<!-- Fluent System Icons: PluginWeb retains a simple, recognizable silhouette. 16 px optical slot from document_globe_16_regular.svg; solid color and open counters preserve clarity. -->
<!-- Copyright (c) Microsoft Corporation. MIT License; see LICENSE-fluent.txt. -->
<svg width="16" height="16" viewBox="0 0 16 16" fill="#0F6CBD" xmlns="http://www.w3.org/2000/svg">
<path d="M6 12a9 9 0 0 1-.55 2.85q-.25.63-.53.91c-.18.2-.32.24-.42.24s-.23-.05-.41-.24q-.28-.29-.54-.91A9 9 0 0 1 3.01 12zM2 12a10 10 0 0 0 .82 3.68A4.5 4.5 0 0 1 .03 12zm6.97 0a4.5 4.5 0 0 1-2.8 3.68l.2-.46c.35-.86.57-1.99.61-3.22zm.6-11c.4 0 .79.16 1.07.44l2.91 2.91c.28.28.44.67.44 1.06V13a2 2 0 0 1-2 2H8.74q.39-.46.66-1H12a1 1 0 0 0 1-1V6h-2.5A1.5 1.5 0 0 1 9 4.5V2H6a1 1 0 0 0-1 1v3.02a6 6 0 0 0-1 0V3c0-1.1.9-2 2-2zM10 4.5c0 .28.22.5.5.5h2.3L10 2.2zM2.83 7.32l-.2.46A10 10 0 0 0 2 11H.03a4.5 4.5 0 0 1 2.8-3.68M4.5 7c.1 0 .24.05.42.24q.28.29.53.91c.3.73.5 1.72.54 2.85H3.01a9 9 0 0 1 .54-2.85q.26-.63.54-.91c.18-.2.32-.24.41-.24m1.67.32c1.51.6 2.62 2 2.8 3.68H7a10 10 0 0 0-.82-3.68"/>
</svg>
