<!-- Fluent System Icons: SortByAttributes retains a simple, recognizable silhouette. 16 px optical slot from tag_multiple_16_regular.svg; solid color and open counters preserve clarity. -->
<!-- Copyright (c) Microsoft Corporation. MIT License; see LICENSE-fluent.txt. -->
<svg width="16" height="16" viewBox="0 0 16 16" fill="#424242" xmlns="http://www.w3.org/2000/svg">
<path d="M11.36 4.66c-.3.3-.8.3-1.1 0a.76.76 0 0 1 0-1.08c.3-.3.8-.3 1.1 0s.3.78 0 1.08m-8.82 4.5a2 2 0 0 1 0-2.83L7.29 1.6c.38-.37.89-.58 1.42-.59L11.97 1A2 2 0 0 1 14 3.02l-.03 3.37a2 2 0 0 1-.59 1.4L8.7 12.45c-.78.78-2.06.78-2.84 0zm.7-2.12a1 1 0 0 0 0 1.41l3.32 3.3c.39.38 1.03.38 1.42 0l4.69-4.67a1 1 0 0 0 .3-.7l.02-3.37A1 1 0 0 0 11.98 2l-3.27.01q-.41 0-.7.3zM2 9.75a2 2 0 0 0 .46 2.11l1.96 1.97a4 4 0 0 0 5.66 0l3.48-3.48c.28-.28.44-.67.44-1.06V8.5l-3.92 3.92-.21.2-.5.5a3 3 0 0 1-4.24 0l-.5-.5-.2-.2-1.97-1.97A2 2 0 0 1 2 9.75"/>
</svg>
