<!-- Fluent System Icons: DriveOptical retains a simple, recognizable silhouette. 24 px optical slot from cd_16_regular.svg; solid color and open counters preserve clarity. -->
<!-- Copyright (c) Microsoft Corporation. MIT License; see LICENSE-fluent.txt. -->
<svg width="24" height="24" viewBox="0 0 24 24" fill="#0F6CBD" xmlns="http://www.w3.org/2000/svg">
<g transform="scale(1.5)"><path d="M8 6a2 2 0 1 0 0 4 2 2 0 0 0 0-4M7 8a1 1 0 1 1 2 0 1 1 0 0 1-2 0m1-6a6 6 0 1 0 0 12A6 6 0 0 0 8 2M3 8a5 5 0 1 1 10 0A5 5 0 0 1 3 8"/></g>
</svg>
